# xmcd
#
# Track frame offsets:
#	150
#	14731
#	31090
#	44552
#	71726
#
# Disc length: 1136 seconds
#
# Revision: 0
# Processed by: cddbd v1.5.1PL0 Copyright (c) Steve Scherf et al.
# Submitted via: dBpowerAMP V4.0
#
DISCID=41046e05
DTITLE=Net d'r Langs - Doe Eens Mee!
DYEAR=2005
DGENRE=
TTITLE0=Doe Eens Mee!
TTITLE1=Medley (feest)
TTITLE2=Billy Yo
TTITLE3=Medley (meezing)
TTITLE4=Bambolita
EXTD=
EXTT0=
EXTT1=
EXTT2=
EXTT3=
EXTT4=
PLAYORDER=
